<?xml version="1.0" encoding="UTF-8" standalone="no"?>
<!-- Created with Inkscape (http://www.inkscape.org/) -->

<svg
   xmlns:dc="http://purl.org/dc/elements/1.1/"
   xmlns:cc="http://creativecommons.org/ns#"
   xmlns:rdf="http://www.w3.org/1999/02/22-rdf-syntax-ns#"
   xmlns:svg="http://www.w3.org/2000/svg"
   xmlns="http://www.w3.org/2000/svg"
   xmlns:sodipodi="http://sodipodi.sourceforge.net/DTD/sodipodi-0.dtd"
   xmlns:inkscape="http://www.inkscape.org/namespaces/inkscape"
   width="1000"
   height="300"
   id="svg2"
   version="1.1"
   inkscape:version="0.48.2 r9819"
   sodipodi:docname="grass.svg">
  <defs
     id="defs4">
    <inkscape:path-effect
       effect="sketch"
       id="path-effect3903"
       is_visible="true"
       nbiter_approxstrokes="4"
       strokelength="100"
       strokelength_rdm="0.3;1"
       strokeoverlap="0.3"
       strokeoverlap_rdm="0.3;1"
       ends_tolerance="0.1;1"
       parallel_offset="5;1"
       tremble_size="5;1"
       tremble_frequency="1"
       nbtangents="5"
       tgt_places_rdmness="1;1"
       tgtscale="10"
       tgtlength="100"
       tgtlength_rdm="0.3;1" />
    <inkscape:path-effect
       effect="spiro"
       id="path-effect3773"
       is_visible="true" />
  </defs>
  <sodipodi:namedview
     id="base"
     pagecolor="#ffffff"
     bordercolor="#666666"
     borderopacity="1.0"
     inkscape:pageopacity="0.0"
     inkscape:pageshadow="2"
     inkscape:zoom="1.4"
     inkscape:cx="490.90968"
     inkscape:cy="245.36519"
     inkscape:document-units="px"
     inkscape:current-layer="layer1"
     showgrid="false"
     fit-margin-top="0"
     fit-margin-left="0"
     fit-margin-right="0"
     fit-margin-bottom="0"
     inkscape:window-width="1680"
     inkscape:window-height="1002"
     inkscape:window-x="0"
     inkscape:window-y="0"
     inkscape:window-maximized="1" />
  <metadata
     id="metadata7">
    <rdf:RDF>
      <cc:Work
         rdf:about="">
        <dc:format>image/svg+xml</dc:format>
        <dc:type
           rdf:resource="http://purl.org/dc/dcmitype/StillImage" />
      </cc:Work>
    </rdf:RDF>
  </metadata>
  <g
     inkscape:label="Layer 1"
     inkscape:groupmode="layer"
     id="layer1"
     transform="translate(0.06500385,-508.74985)">
    <rect
       style="fill:#66ccff;fill-opacity:1;stroke:#000000;stroke-width:0;stroke-linecap:round;stroke-linejoin:round;stroke-miterlimit:4;stroke-opacity:1;stroke-dasharray:none"
       id="rect2993"
       width="1004.2809"
       height="215.71428"
       x="-1.4285713"
       y="507.36218" />
    <path
       style="fill:#59ff82;fill-opacity:1"
       d="m -1.2342284,722.5778 c 0.2058949,-27.82982 0.2063346,-27.83565 2.990605,-39.67962 1.2711499,-5.40734 3.3875553,-11.64555 6.0218163,-17.74963 l 1.7888852,-4.14518 -3.1335989,-10.44509 c -3.5972112,-11.99044 -3.891063,-13.10683 -3.449904,-13.10683 0.1774458,0 2.7137617,2.77264 5.6362571,6.16143 2.9224957,3.38878 5.5308467,6.24941 5.7963377,6.35695 0.764184,0.30952 1.132695,-0.0685 2.992611,-3.06957 0.950631,-1.53391 1.908132,-2.71254 2.127783,-2.61918 0.21965,0.0934 0.218767,0.96827 -0.0019,1.94425 -0.220729,0.97597 -0.656917,3.24412 -0.969305,5.04033 l -0.567979,3.26584 1.573238,1.76189 c 2.190315,2.45296 2.058502,2.34603 2.627673,2.1317 0.391847,-0.14757 5.746638,-19.61408 5.746638,-20.8911 0,-0.16664 0.200375,-0.25635 0.445277,-0.19935 0.244903,0.057 0.59238,0.75894 0.772171,1.55987 0.589062,2.62417 1.650515,2.77896 2.219281,0.32365 0.201073,-0.86802 0.543511,-1.61962 0.760973,-1.67023 0.513782,-0.11957 0.548801,-6e-4 3.944273,13.40937 1.592564,6.2896 3.111058,12.27851 3.374429,13.3087 0.263371,1.03019 1.200863,4.71227 2.083316,8.18238 1.610238,6.33203 4.790267,13.48185 6.034708,13.56814 0.287971,0.02 0.714159,-0.62913 0.947084,-1.44244 0.232925,-0.81331 0.727527,-2.53222 1.099116,-3.8198 0.773249,-2.67937 1.943949,1.71606 -11.979826,-44.97875 -3.837768,-12.87035 -4.249496,-14.47627 -3.653943,-14.25201 0.158085,0.0596 3.703222,4.08911 7.878083,8.95462 8.172492,9.52447 18.456061,21.49775 18.830865,21.92501 0.65638,0.74825 1.704482,-0.32713 4.684108,-4.80603 1.800483,-2.70643 4.515562,-6.51782 6.033518,-8.46976 1.517951,-1.95195 2.862952,-3.77763 2.98889,-4.05708 0.315987,-0.70115 -4.460723,-7.33004 -8.816723,-12.23542 -1.986926,-2.23752 -3.612593,-4.14266 -3.612593,-4.23365 0,-0.84551 13.56906,9.04035 19.250692,14.02526 4.417542,3.87584 9.546028,9.11442 12.444447,12.71161 1.35433,1.68084 2.650563,3.18723 2.880511,3.34752 0.702007,0.48937 1.369017,-0.40189 3.390597,-4.53051 4.868657,-9.94317 12.663737,-21.67051 20.575607,-30.95504 1.1051,-1.29684 2.00198,-2.08273 2.09526,-1.83596 0.0897,0.2373 -0.4365,1.92307 -1.16931,3.74615 -3.48354,8.6664 -5.63988,16.58562 -7.21071,26.48169 -1.00483,6.33022 -0.83999,23.64961 0.28492,29.93797 1.5255,8.52769 4.09384,17.88843 5.00193,18.23039 0.77343,0.29125 0.89873,-0.17114 3.99697,-14.74875 1.59027,-7.48245 3.47624,-16.31054 4.19104,-19.61801 1.94798,-9.0135 3.20328,-14.88095 4.93534,-23.0684 0.86029,-4.06655 1.71813,-7.79298 1.90632,-8.28096 0.30189,-0.78282 0.38883,-0.82922 0.73863,-0.39434 0.21806,0.27111 0.66323,1.77943 0.98927,3.35183 0.32604,1.57239 1.29098,6.09735 2.14431,10.05545 0.85333,3.95811 2.37772,11.05608 3.38754,15.77327 1.00982,4.7172 2.29954,10.70611 2.86606,13.30869 0.56652,2.6026 1.28445,5.92977 1.5954,7.39373 1.37921,6.49315 1.5861,7.34463 1.89846,7.81327 0.18202,0.27311 0.52373,0.42353 0.75934,0.33426 0.23562,-0.0893 1.13682,-1.89244 2.00268,-4.00705 0.86585,-2.11461 3.71607,-8.99077 6.33382,-15.28035 7.7413,-18.59982 8.85055,-21.27156 10.7645,-25.92731 1.00305,-2.43993 2.16684,-5.23476 2.58623,-6.21072 0.41938,-0.97598 1.73774,-4.12302 2.92971,-6.99344 1.19196,-2.87041 2.38118,-5.39907 2.6427,-5.61923 0.28641,-0.2411 0.37555,9.55732 0.22416,24.63978 -0.13824,13.77204 -0.0537,25.21751 0.18784,25.4344 0.73631,0.6611 0.72692,0.69077 4.49229,-14.19595 1.59086,-6.28959 3.25304,-12.89957 3.69374,-14.68885 0.4407,-1.78928 0.92926,-3.56118 1.08569,-3.93755 0.41302,-0.99375 1.03651,-0.40714 1.46081,1.37439 0.19369,0.81331 0.92549,3.69686 1.62623,6.40789 0.70072,2.71103 1.85755,7.23599 2.57071,10.05546 4.02733,15.9221 6.64544,25.86084 6.92149,26.275 0.64774,0.97185 1.2045,0.0392 1.97374,-3.30619 1.55231,-6.75091 2.03419,-11.44988 2.05218,-20.01132 0.0213,-10.14263 -1.03438,-17.74402 -3.63127,-26.14672 -1.54179,-4.98874 -0.74125,-4.48233 5.02221,3.17689 9.9324,13.19947 16.93588,26.63544 20.96207,40.21512 0.59371,2.00248 1.18567,3.68085 1.31546,3.72973 0.65507,0.24668 0.92505,-0.43107 1.38112,-3.46704 0.69325,-4.61491 -0.10457,-12.0321 -1.95745,-18.19807 -2.5801,-8.58596 -8.60502,-18.42122 -16.29387,-26.59861 -1.26482,-1.3452 -2.22178,-2.53381 -2.12657,-2.64137 0.43249,-0.48858 10.78173,6.84422 16.58037,11.74776 8.23794,6.9663 14.20531,13.36713 19.38652,20.79475 0.32149,0.46088 0.83056,0.83796 1.13128,0.83796 0.37683,0 0.51858,-5.95937 0.45609,-19.17438 -0.0983,-20.78878 -0.10586,-20.1687 0.24433,-20.03683 0.1322,0.0498 2.14315,4.56735 4.46878,10.03903 2.32563,5.47168 4.68394,11.0132 5.24068,12.3145 0.55675,1.30129 2.92532,6.89094 5.26351,12.42145 6.00801,14.21076 6.14088,14.52466 7.26068,17.15343 0.55432,1.30129 1.86347,4.40665 2.90923,6.9008 1.83627,4.37952 2.45238,5.27961 3.08396,4.50537 0.16369,-0.20069 1.25542,-4.84548 2.42605,-10.32176 1.17063,-5.47629 2.3592,-11.02157 2.64129,-12.32286 0.28208,-1.30131 1.33951,-6.22552 2.34984,-10.94271 2.07038,-9.66646 4.26245,-19.84068 4.76975,-22.13807 0.18632,-0.84383 0.5399,-1.58105 0.7857,-1.63826 0.24582,-0.0572 0.44774,0.0565 0.44873,0.25266 10e-4,0.19618 0.22367,1.33265 0.49486,2.5255 0.27118,1.19286 0.74466,3.36661 1.05215,4.83057 0.30749,1.46395 0.79412,3.68207 1.08138,4.92914 0.28727,1.24708 1.34365,6.12693 2.34751,10.84413 1.00386,4.71719 2.30305,10.79482 2.88707,13.50586 0.58403,2.71103 1.52385,7.10289 2.08848,9.75971 3.3431,15.73067 3.64304,17.07932 3.98499,17.91848 0.81391,1.9973 2.33287,-1.86827 3.32215,-8.45452 0.30134,-2.00617 1.13213,-5.41345 1.8462,-7.57176 2.34915,-7.1003 2.71833,-22.7129 0.79376,-33.56753 -1.36363,-7.69092 -3.86824,-16.26025 -6.86899,-23.50177 -0.86957,-2.09848 -1.46506,-3.85907 -1.32331,-3.91245 0.34688,-0.13062 5.50028,5.86105 9.02082,10.48817 4.30716,5.66098 9.38974,13.47486 12.46199,19.15884 1.95314,3.6135 2.95663,5.09255 3.45515,5.09255 0.40004,0 1.9757,-1.10368 3.65925,-2.56315 4.03058,-3.49412 11.74762,-9.16414 16.66218,-12.24238 6.65579,-4.16885 14.55817,-8.50456 15.11706,-8.2941 0.12492,0.047 -0.93406,1.00493 -2.35332,2.12862 -14.72289,11.65693 -23.21761,23.32193 -26.00567,35.71114 -0.68391,3.03905 -0.66506,3.6013 0.23476,6.99938 0.53813,2.03219 1.24426,5.11449 1.56918,6.84954 0.9985,5.332 1.47372,5.31709 3.14143,-0.0986 3.72042,-12.08161 10.00666,-25.44925 17.8429,-37.94274 2.94442,-4.69433 3.95479,-5.51239 3.42369,-2.77201 -1.17394,6.05726 -1.84456,25.32718 -0.90094,25.88735 0.60512,0.35922 1.0059,0.13423 4.14337,-2.32603 4.69934,-3.68501 15.63165,-10.19315 22.47129,-13.37744 1.24583,-0.58002 2.37227,-1.24545 2.50319,-1.47875 0.22366,-0.39856 0.78713,-2.97434 3.43547,-15.70451 1.04179,-5.00774 1.31573,-5.87415 1.79967,-5.69191 0.12026,0.0453 0.94675,3.58479 1.83661,7.86556 1.849,8.89468 1.90288,9.06479 2.8713,9.06479 0.39332,0 1.34743,-0.28835 2.12027,-0.64078 0.77283,-0.35244 5.21161,-2.10475 9.86396,-3.89403 l 8.45881,-3.25323 1.21275,-2.26741 c 3.1199,-5.83309 11.44515,-18.4963 12.70313,-19.32226 0.64968,-0.42655 0.60498,0.30283 -0.27799,4.53678 -1.54488,7.40788 -2.00428,12.13844 -2.01984,20.79904 -0.021,11.66534 1.36139,21.45531 4.38481,31.05362 1.19531,3.79471 1.7055,3.20967 3.61075,-4.14049 0.88544,-3.41589 1.83736,-7.00924 2.11538,-7.98521 0.27801,-0.97597 0.75486,-2.75047 1.05966,-3.94332 0.59233,-2.31814 0.95259,-3.15246 1.30408,-3.0201 0.12048,0.0454 0.46695,0.9209 0.76991,1.94563 0.61908,2.09389 7.8229,29.53209 9.47045,36.07141 1.23301,4.89394 1.35685,5.18116 2.1888,5.07673 1.77489,-0.22278 6.83237,-9.45904 9.09365,-16.60737 1.10883,-3.50517 1.55003,-13.73054 0.76156,-17.6499 -2.57962,-12.82288 -11.14387,-25.07452 -25.457,-36.41764 -1.87092,-1.48268 -3.3292,-2.77765 -3.24064,-2.8777 0.0886,-0.10005 1.94977,0.78179 4.13602,1.95966 20.15109,10.85659 34.4492,22.77286 42.90579,35.75834 3.26472,5.01314 3.04435,4.73199 3.70894,4.73199 0.37736,0 0.44282,-0.58559 0.20386,-1.82379 -2.36937,-12.2771 -8.75103,-24.76475 -18.6088,-36.41368 -0.86587,-1.0232 -1.49016,-1.89206 -1.38732,-1.93078 0.33895,-0.12765 2.37939,1.31971 6.55335,4.64854 11.45378,9.13464 20.31736,18.33987 26.79735,27.83024 1.14767,1.68084 2.33219,3.34524 2.63226,3.69867 1.48818,1.75283 1.62457,0.19604 1.25032,-14.27279 -0.27643,-10.68744 -0.22189,-14.66311 0.20118,-14.66311 0.31925,0 0.58045,0.0914 0.58045,0.20318 0,0.11175 1.63922,3.86036 3.6427,8.33025 2.00349,4.4699 6.60573,14.78144 10.22719,22.91452 8.37817,18.8157 8.12323,18.30259 8.93981,17.9951 0.16257,-0.0612 1.44279,-2.6712 2.84496,-5.79997 3.87839,-8.65414 7.57108,-15.48677 12.55823,-23.23641 2.93391,-4.55907 3.2345,-4.69293 2.87793,-1.28158 -1.47582,14.12061 -0.9758,35.48985 0.83046,35.48985 0.58097,0 1.31435,-0.97414 2.52346,-3.35181 0.57904,-1.13864 6.00583,-11.47506 12.05958,-22.96983 6.05373,-11.49477 12.9326,-24.56627 15.28632,-29.04778 2.36037,-4.49413 4.45947,-8.03855 4.68079,-7.9037 0.22074,0.13447 0.26791,8.79192 0.10493,19.23878 -0.20472,13.12198 -0.12754,18.99428 0.24964,18.99428 0.30027,0 2.90584,-1.81122 5.79011,-4.02492 6.79012,-5.2114 15.93667,-11.17781 16.69686,-10.89155 0.14,0.0527 -1.28671,1.64416 -3.17046,3.53654 -11.47138,11.52394 -17.07473,23.31346 -17.07561,35.92707 -4.3e-4,6.11009 1.44336,13.3087 2.66928,13.3087 0.66317,0 0.88722,-0.51816 2.04595,-4.73198 1.72328,-6.26673 5.69566,-20.33918 6.79007,-24.05423 0.55903,-1.89772 1.50645,-5.2213 2.10538,-7.38573 0.59893,-2.16444 1.1911,-3.97381 1.31598,-4.02083 0.12487,-0.047 0.344,0.0381 0.48694,0.18918 0.21597,0.22828 2.35864,7.43902 4.4757,15.06211 4.3313,15.59596 6.12652,21.59597 6.50428,21.7382 0.16697,0.0629 0.40709,0.0754 0.53354,0.0278 0.12638,-0.0476 0.60421,-2.92377 1.06177,-6.39145 1.20656,-9.14365 2.17267,-14.35533 4.47408,-24.1351 0.57249,-2.43262 1.04084,-4.93158 1.04084,-5.55326 0,-1.2273 -3.17905,-7.35541 -6.02463,-11.61347 -9.59223,-14.35341 -24.48035,-27.54427 -45.7913,-40.57103 -1.82213,-1.11381 -3.1945,-2.0697 -3.04972,-2.12421 0.50137,-0.18882 10.15047,4.18204 18.73574,8.48696 13.77222,6.90583 26.63696,14.94121 37.17708,23.22097 2.15979,1.69663 4.2214,3.08835 4.58136,3.09272 0.35997,0.004 0.65449,-0.0416 0.65449,-0.10216 0,-0.0605 0.233,-0.70381 0.51772,-1.42945 0.28472,-0.72564 1.47363,-3.80363 2.64195,-6.83999 4.24648,-11.03631 9.80308,-23.01248 10.46368,-22.55243 0.21541,0.14998 0.13981,2.04718 -0.1679,4.21601 -0.31096,2.19181 -0.57459,12.00025 -0.59354,22.08258 l -0.0341,18.13925 1.48285,1.62662 c 0.81559,0.89464 1.68327,1.62662 1.92815,1.62662 0.64459,0 0.83366,-0.31138 2.59002,-4.26622 4.79436,-10.79547 12.48995,-23.01394 21.26446,-33.76207 1.53812,-1.88412 2.95458,-3.48117 3.14767,-3.54898 0.47097,-0.16542 0.10059,1.07051 -1.79495,5.98883 -5.5034,14.27984 -7.81382,28.0093 -7.23311,42.98216 0.38683,9.97418 1.42075,16.58572 4.0237,25.73014 1.22199,4.29296 1.4796,4.83955 2.1602,4.58327 0.2741,-0.10323 1.18603,-3.37264 2.02644,-7.26534 0.8404,-3.8927 1.8894,-8.71904 2.33114,-10.7252 1.07111,-4.86445 3.57819,-16.55875 5.22026,-24.34999 0.73133,-3.47011 1.56232,-7.28528 1.84657,-8.47813 0.28431,-1.19285 1.11906,-5.09674 1.85502,-8.6753 0.73594,-3.57856 1.52891,-6.77264 1.76207,-7.09797 0.41588,-0.58025 0.43048,-0.57463 0.76726,0.29575 0.1888,0.48798 1.18057,4.83549 2.20392,9.66113 1.02329,4.82563 2.30895,10.85891 2.85699,13.40727 0.54804,2.54838 1.94141,9.02527 3.09633,14.39311 1.15497,5.36784 2.58263,12.02219 3.17255,14.78744 0.58993,2.76525 1.19398,5.15347 1.34236,5.30716 0.49469,0.51237 1.17456,-0.0573 1.74527,-1.46243 1.34279,-3.30585 13.58205,-32.82257 18.64035,-44.95381 1.85386,-4.44609 4.22957,-10.16883 5.2793,-12.7172 1.04979,-2.54836 2.131,-4.76648 2.40274,-4.92915 0.31017,-0.18567 0.36713,9.10686 0.15299,24.96683 -0.22441,16.62337 -0.16352,25.30388 0.17807,25.38337 0.73102,0.17014 0.98288,-0.48287 2.46148,-6.38221 0.72029,-2.87369 1.52504,-6.06778 1.78845,-7.09797 0.26337,-1.03019 1.45788,-5.77696 2.65448,-10.54837 1.1966,-4.77141 2.30466,-8.89711 2.46236,-9.16821 0.2686,-0.46173 0.31363,-0.46797 0.71229,-0.0986 0.23404,0.21689 0.92768,2.47936 1.54143,5.02773 0.98492,4.08955 1.80297,7.31249 3.67824,14.49169 0.28331,1.08441 0.97769,3.79052 1.54311,6.01356 1.40906,5.54005 4.10302,16.05891 4.99212,19.49221 0.71453,2.75931 0.95538,3.18551 1.65196,2.92319 0.60583,-0.22814 1.6851,-7.36454 2.30162,-15.21884 0.87601,-11.16011 -0.2609,-23.95663 -3.1746,-35.73205 -1.45598,-5.88433 -1.38095,-6.45231 0.51248,-3.87708 6.85928,9.32942 14.43325,22.50837 18.56323,32.30064 0.72747,1.72472 1.5495,3.2213 1.82679,3.32572 0.32321,0.1217 1.61573,-0.69175 3.60059,-2.26605 4.19375,-3.32628 8.23735,-6.02253 14.09814,-9.40058 l 4.91626,-2.83361 1.53572,-7.22184 c 0.84464,-3.97202 2.01491,-9.5287 2.60059,-12.34817 1.04581,-5.03434 1.39264,-6.14784 1.86004,-5.97183 0.16456,0.062 4.42691,19.16153 4.42691,19.83701 0,0.37009 2.43682,-0.47918 7.254,-2.52814 3.1869,-1.35551 7.33202,-3.09375 9.21137,-3.86275 l 3.41708,-1.39818 1.60028,-3.03805 c 2.60107,-4.93809 7.08085,-12.18894 10.45604,-16.9238 2.99134,-4.1965 3.43911,-4.72618 3.83186,-4.53283 0.0917,0.0452 -0.24897,2.21154 -0.75711,4.81413 -1.4198,7.27215 -2.09371,14.12561 -1.41902,14.43173 0.4084,0.18533 0.3807,0.42512 -0.0996,0.86181 -0.88585,0.80534 -0.35195,16.18107 0.78344,22.56231 1.89543,10.65308 6.51235,25.59343 8.09289,26.1886 0.71732,0.27012 0.92141,-0.19335 2.11241,-4.79611 4.19952,-16.23034 6.96546,-26.53112 7.14269,-26.60096 0.11471,-0.0452 0.32688,-0.0376 0.47148,0.0168 0.14462,0.0545 1.45248,4.61638 2.90637,10.13761 6.29836,23.91863 7.71953,29.09074 8.02525,29.20586 0.62673,0.236 0.9747,-0.13999 2.44629,-2.64319 2.10455,-3.57987 3.99563,-8.42097 4.99138,-12.77792 1.06707,-4.66874 0.78841,-14.707 -0.52248,-18.82202 -3.87149,-12.15275 -11.69783,-22.56888 -24.73027,-32.91361 -1.83019,-1.45274 -3.32758,-2.68357 -3.32758,-2.73518 0,-0.49365 5.81885,2.52258 11.9218,6.1797 21.62986,12.96144 35.62047,27.62502 41.23414,43.21751 0.71327,1.98124 1.29686,3.64495 1.29686,3.69713 0,0.0522 0.23561,0.0949 0.52359,0.0949 0.69736,0 0.68798,-7.42359 -0.0147,-11.53757 -2.20995,-12.94047 -8.29834,-25.18292 -18.37018,-36.93867 -1.14885,-1.34091 -1.98743,-2.47619 -1.86354,-2.52284 0.47017,-0.17707 7.0841,4.73656 11.98532,8.90416 7.55732,6.42619 15.16778,14.42707 19.93721,20.96002 2.32101,3.17919 2.6993,3.56372 3.28775,3.34212 0.16587,-0.0624 0.86213,-1.69647 1.54719,-3.63113 4.01737,-11.34516 8.36364,-20.99492 14.72724,-32.69812 2.84594,-5.23392 3.79489,-6.55372 3.82772,-5.32348 0.009,0.32533 -0.33232,2.76525 -0.75783,5.42206 -2.71454,16.94955 -2.88522,33.13285 -0.53333,50.57305 1.09634,8.12944 1.51059,9.76199 2.39293,9.42973 0.26897,-0.1013 2.15236,-6.47885 4.18523,-14.17233 2.03292,-7.69349 3.80463,-14.11177 3.9372,-14.26284 0.13257,-0.15108 0.37154,-0.22554 0.53097,-0.1655 0.15948,0.0601 2.3844,7.93671 4.94425,17.50368 2.55992,9.56698 4.78002,17.44183 4.93359,17.49967 0.15362,0.0578 0.42003,0.0522 0.59202,-0.0126 0.41844,-0.15757 0.72511,-1.71434 4.37868,-22.22769 2.70427,-15.18362 4.33199,-24.27447 8.6668,-48.40422 0.4286,-2.38571 1.03423,-5.75724 1.34592,-7.4923 0.31169,-1.73506 0.75345,-3.22789 0.98162,-3.31741 0.22823,-0.0895 0.57034,0.62029 0.7603,1.57733 0.94989,4.78544 1.50379,7.77752 2.93197,15.83743 1.45116,8.18984 4.66414,26.16966 7.57103,42.36713 1.72155,9.59301 2.38509,9.65163 3.45996,0.30566 0.68542,-5.96015 0.3686,-22.09053 -0.52453,-26.70235 -1.89323,-9.7762 -4.07459,-17.07608 -7.41616,-24.81814 -0.57919,-1.3419 -0.96622,-2.58404 -0.8601,-2.76032 0.23075,-0.38331 4.41518,4.36914 8.48255,9.634 12.36027,15.99936 20.87228,33.38588 24.61571,50.27966 2.5025,11.29391 2.4861,11.01029 2.7316,46.97476 l 0.2339,34.25756 c -15.94532,-5.44893 -23.31774,-2.36151 -31.41917,0 -10.72667,3.283 -3.03403,11.80622 -32.18001,9.84899 -7.66271,-3.18739 -12.11657,-11.16755 -17.21649,-18.18275 -22.96663,1.64362 -34.37142,8.29773 -44.86097,8.33376 -10.47306,-4.29235 -20.94611,-3.07213 -31.41916,0 -9.86763,-0.15727 -7.72075,-3.43539 -31.41916,0 -11.87211,0.92873 -28.76279,5.18891 -31.41916,0 -12.78743,1.53066 -26.43058,0.079 -38.01326,5.80838 -10.47305,0 -19.59381,-10.29404 -36.49154,-12.12183 -24.3211,17.1317 -8.79478,3.6657 -19.75267,6.31345 -29.72398,-0.0159 -18.06898,14.20348 -31.41915,0 -9.91709,-2.39894 -19.55296,-6.01126 -31.41916,0 -7.06961,4.99401 -2.74579,11.12251 -22.03525,14.89975 -8.69476,-2.485 -19.2883,-27.32297 -36.49901,-21.32832 -10.63261,15.82281 -25.57674,1.26998 -33.41953,13.3053 -23.86111,0.47569 -31.79003,-6.66117 -53.09112,-12.59102 -4.0424,-4.44765 -54.89414,6.39917 -54.89414,6.39917 -49.77539,20.02631 -45.00021,-4.29402 -61.24147,-7.41825 -24.33098,-4.6804 -64.34277,10.44603 -81.15885,10.5976 -16.81608,0.15156 -28.09457,-0.0792 -30.71707,-0.98188 -2.25199,-0.77518 -11.65764,-2.99676 -26.41895,-5.47963 -14.76131,-2.48288 -34.87826,-5.22704 -58.55284,-7.04738 -23.67459,-1.82034 -55.93694,17.83766 -84.717387,14.1529 -7.361679,-0.94251 -16.229241,-6.34915 -21.552324,-2.74294 -0.877207,0.59428 -13.750619,-6.50315 -20.73948,-6.74958 -6.988862,-0.24644 -12.996592,5.9608 -20.178693,6.7186 -7.1821,0.75781 -15.5385713,-3.93382 -23.1670084,-1.73432 l 0.1943721,-26.27234 z M 81.466298,673.31953 c 0.207653,-0.69601 0.61984,-2.86252 0.915969,-4.81446 1.386829,-9.14135 -0.211706,-18.74875 -4.653825,-27.97008 -1.072166,-2.22569 -1.391238,-2.55232 -2.082093,-2.13137 -1.310014,0.79818 -3.720341,15.99966 -3.720341,23.46348 l 0,3.62021 3.969343,4.62534 c 2.519107,2.93543 4.192955,4.59739 4.581366,4.54885 0.336612,-0.0421 0.781922,-0.64595 0.989581,-1.34197 z m 298.298052,-4.52527 c 1.21218,-5.64114 1.25861,-6.06462 0.6359,-5.79998 -1.47036,0.6249 -3.55272,8.1546 -2.86228,10.34989 0.55921,1.778 1.10735,0.65778 2.22638,-4.54991 z m 422.79303,2.47113 c 0.94857,-5.83423 2.70065,-12.95672 4.51068,-18.33642 1.01638,-3.02095 3.82641,-10.33989 4.48518,-11.68208 0.23761,-0.48408 0.12781,-0.64079 -0.44882,-0.64079 -0.95527,0 -7.74832,4.58222 -11.64264,7.85349 -3.42449,2.8766 -3.38565,2.67943 -1.87359,9.5151 0.56149,2.53847 1.50709,6.9666 2.10125,9.8403 0.59417,2.87369 1.21347,5.44545 1.37614,5.71502 0.54013,0.89473 1.12167,0.0119 1.4918,-2.26462 z m -400.5666,-1.522 c 1.69831,-9.60765 4.75192,-19.37311 9.01862,-28.84154 2.52125,-5.59502 2.52924,-5.61923 1.85515,-5.61923 -1.08519,0 -11.42184,6.18354 -15.69728,9.39036 l -2.13627,1.60231 1.02253,4.707 c 0.56239,2.58885 1.50049,7.01384 2.08465,9.83331 0.58417,2.81947 1.29295,6.23537 1.57507,7.59088 0.58144,2.79363 0.93176,3.59372 1.51419,3.45816 0.22277,-0.0519 0.56627,-1.0064 0.76334,-2.12125 z"
       id="path3901"
       inkscape:connector-curvature="0"
       sodipodi:nodetypes="csscssscsccscscsssssssscssscssssssssscsscsssssssccsssssscssscscsssssssscssssscssscsssscssssscssssccssssssssssscssssscsssssssssscscsssscscsssscscsssssscssssscsssssssscssssssscssscssssssccsccscssscsscssscsscsssscssscssscscccsssscsccscccsscscssssssccsscsscssscsccsccsscscssscssssssscscsscsscsscsscsccssscsssssscssscccccccccccccccccsssssssssscccssscscscsssssssssssscssssscssscs" />
  </g>
</svg>
